<mxfile host="app.diagrams.net" modified="2022-03-03T09:20:24.138Z" agent="5.0 (Windows NT 10.0; Win64; x64) AppleWebKit/537.36 (KHTML, like Gecko) Chrome/98.0.4758.102 Safari/537.36" etag="qlvNIFLiXu1uc53JGh6C" version="16.6.5" type="github">
  <diagram id="UxWPR8Q1dh1jyQt8T_NS" name="Page-1">
    <mxGraphModel dx="1182" dy="764" grid="1" gridSize="10" guides="1" tooltips="1" connect="1" arrows="1" fold="1" page="1" pageScale="1" pageWidth="827" pageHeight="1169" math="0" shadow="0">
      <root>
        <mxCell id="0" />
        <mxCell id="1" parent="0" />
        <mxCell id="gLSforLf6Kqvrdox4JSZ-14" style="rounded=0;orthogonalLoop=1;jettySize=auto;html=1;exitX=0.5;exitY=0;exitDx=0;exitDy=0;entryX=0;entryY=0.75;entryDx=0;entryDy=0;startArrow=diamond;startFill=1;" edge="1" parent="1" source="gLSforLf6Kqvrdox4JSZ-5" target="gLSforLf6Kqvrdox4JSZ-6">
          <mxGeometry relative="1" as="geometry" />
        </mxCell>
        <mxCell id="gLSforLf6Kqvrdox4JSZ-16" style="edgeStyle=none;rounded=0;orthogonalLoop=1;jettySize=auto;html=1;exitX=1;exitY=0.5;exitDx=0;exitDy=0;entryX=0;entryY=0.5;entryDx=0;entryDy=0;startArrow=diamond;startFill=1;" edge="1" parent="1" source="gLSforLf6Kqvrdox4JSZ-5" target="gLSforLf6Kqvrdox4JSZ-8">
          <mxGeometry relative="1" as="geometry" />
        </mxCell>
        <mxCell id="gLSforLf6Kqvrdox4JSZ-20" style="edgeStyle=none;rounded=0;orthogonalLoop=1;jettySize=auto;html=1;exitX=0;exitY=0.5;exitDx=0;exitDy=0;entryX=1;entryY=0.5;entryDx=0;entryDy=0;startArrow=diamond;startFill=1;" edge="1" parent="1" source="gLSforLf6Kqvrdox4JSZ-5" target="gLSforLf6Kqvrdox4JSZ-12">
          <mxGeometry relative="1" as="geometry" />
        </mxCell>
        <mxCell id="gLSforLf6Kqvrdox4JSZ-5" value="&lt;&lt;block&gt;&gt;&#xa;Station météorologique" style="swimlane;startSize=50;" vertex="1" parent="1">
          <mxGeometry x="350" y="270" width="200" height="100" as="geometry" />
        </mxCell>
        <mxCell id="gLSforLf6Kqvrdox4JSZ-15" style="edgeStyle=none;rounded=0;orthogonalLoop=1;jettySize=auto;html=1;exitX=0;exitY=0.5;exitDx=0;exitDy=0;entryX=1;entryY=0.5;entryDx=0;entryDy=0;startArrow=diamond;startFill=1;" edge="1" parent="1" source="gLSforLf6Kqvrdox4JSZ-6" target="gLSforLf6Kqvrdox4JSZ-7">
          <mxGeometry relative="1" as="geometry" />
        </mxCell>
        <mxCell id="gLSforLf6Kqvrdox4JSZ-6" value="&lt;&lt;block&gt;&gt;&#xa;Interface utilisateur" style="swimlane;startSize=50;" vertex="1" parent="1">
          <mxGeometry x="520" y="110" width="200" height="100" as="geometry" />
        </mxCell>
        <mxCell id="gLSforLf6Kqvrdox4JSZ-7" value="&lt;&lt;block&gt;&gt;&#xa;Site Web" style="swimlane;startSize=50;" vertex="1" parent="1">
          <mxGeometry x="230" y="40" width="200" height="100" as="geometry" />
        </mxCell>
        <mxCell id="gLSforLf6Kqvrdox4JSZ-17" style="edgeStyle=none;rounded=0;orthogonalLoop=1;jettySize=auto;html=1;exitX=1;exitY=0.25;exitDx=0;exitDy=0;entryX=0;entryY=0.5;entryDx=0;entryDy=0;startArrow=diamond;startFill=1;" edge="1" parent="1" source="gLSforLf6Kqvrdox4JSZ-8" target="gLSforLf6Kqvrdox4JSZ-11">
          <mxGeometry relative="1" as="geometry" />
        </mxCell>
        <mxCell id="gLSforLf6Kqvrdox4JSZ-18" style="edgeStyle=none;rounded=0;orthogonalLoop=1;jettySize=auto;html=1;exitX=1;exitY=0.5;exitDx=0;exitDy=0;entryX=0;entryY=0.5;entryDx=0;entryDy=0;startArrow=diamond;startFill=1;" edge="1" parent="1" source="gLSforLf6Kqvrdox4JSZ-8" target="gLSforLf6Kqvrdox4JSZ-10">
          <mxGeometry relative="1" as="geometry" />
        </mxCell>
        <mxCell id="gLSforLf6Kqvrdox4JSZ-19" style="edgeStyle=none;rounded=0;orthogonalLoop=1;jettySize=auto;html=1;exitX=1;exitY=0.75;exitDx=0;exitDy=0;startArrow=diamond;startFill=1;entryX=0;entryY=0.5;entryDx=0;entryDy=0;" edge="1" parent="1" source="gLSforLf6Kqvrdox4JSZ-8" target="gLSforLf6Kqvrdox4JSZ-9">
          <mxGeometry relative="1" as="geometry">
            <mxPoint x="1010" y="520" as="targetPoint" />
          </mxGeometry>
        </mxCell>
        <mxCell id="gLSforLf6Kqvrdox4JSZ-8" value="&lt;&lt;block&gt;&gt;&#xa;Capteurs" style="swimlane;startSize=50;" vertex="1" parent="1">
          <mxGeometry x="690" y="340" width="200" height="100" as="geometry" />
        </mxCell>
        <mxCell id="gLSforLf6Kqvrdox4JSZ-9" value="&lt;&lt;block&gt;&gt;&#xa;Capteur température" style="swimlane;startSize=50;" vertex="1" parent="1">
          <mxGeometry x="1010" y="440" width="150" height="100" as="geometry" />
        </mxCell>
        <mxCell id="gLSforLf6Kqvrdox4JSZ-10" value="&lt;&lt;block&gt;&gt;&#xa;Capteur pression" style="swimlane;startSize=50;" vertex="1" parent="1">
          <mxGeometry x="1010" y="320" width="150" height="90" as="geometry" />
        </mxCell>
        <mxCell id="gLSforLf6Kqvrdox4JSZ-22" value="BMP280" style="text;html=1;align=center;verticalAlign=middle;resizable=0;points=[];autosize=1;strokeColor=none;fillColor=none;" vertex="1" parent="gLSforLf6Kqvrdox4JSZ-10">
          <mxGeometry y="60" width="60" height="20" as="geometry" />
        </mxCell>
        <mxCell id="gLSforLf6Kqvrdox4JSZ-11" value="&lt;&lt;block&gt;&gt;&#xa;Capteur hygrométrie" style="swimlane;startSize=50;" vertex="1" parent="1">
          <mxGeometry x="1010" y="180" width="150" height="100" as="geometry" />
        </mxCell>
        <mxCell id="gLSforLf6Kqvrdox4JSZ-21" style="edgeStyle=none;rounded=0;orthogonalLoop=1;jettySize=auto;html=1;exitX=0.5;exitY=1;exitDx=0;exitDy=0;entryX=0.5;entryY=0;entryDx=0;entryDy=0;startArrow=diamond;startFill=1;" edge="1" parent="1" source="gLSforLf6Kqvrdox4JSZ-12" target="gLSforLf6Kqvrdox4JSZ-13">
          <mxGeometry relative="1" as="geometry" />
        </mxCell>
        <mxCell id="gLSforLf6Kqvrdox4JSZ-12" value="&lt;&lt;block&gt;&gt;&#xa;Microcontrôleur" style="swimlane;startSize=50;" vertex="1" parent="1">
          <mxGeometry x="50" y="300" width="200" height="100" as="geometry" />
        </mxCell>
        <mxCell id="gLSforLf6Kqvrdox4JSZ-13" value="&lt;&lt;block&gt;&gt;&#xa;Programme" style="swimlane;startSize=50;" vertex="1" parent="1">
          <mxGeometry x="50" y="480" width="200" height="100" as="geometry" />
        </mxCell>
        <mxCell id="gLSforLf6Kqvrdox4JSZ-25" value="Diagramme de définition de blocks" style="swimlane;startSize=23;" vertex="1" parent="1">
          <mxGeometry x="10" width="1180" height="610" as="geometry" />
        </mxCell>
      </root>
    </mxGraphModel>
  </diagram>
</mxfile>
